<svg xmlns="http://www.w3.org/2000/svg" viewBox="0 0 177.29 177.29"><defs><style>.cls-1{fill:#fff;}.cls-2{fill:#2d5475;}.cls-3{fill:#4485bc;}</style></defs><title>Asset 10</title><g id="Layer_2" data-name="Layer 2"><g id="Layer_4" data-name="Layer 4"><rect class="cls-1" width="177.29" height="177.29"/><path class="cls-2" d="M85.56,62.63l.58-.52.09-.05a41.15,41.15,0,0,1,16.18-8.64A44.68,44.68,0,0,0,26.15,65.7a48.21,48.21,0,0,0,59.42-3.07Z"/><path class="cls-1" d="M74.65,46.07H53.91a6.78,6.78,0,0,0-6.76,6.76V80.62a6.78,6.78,0,0,0,6.76,6.76H74.65a6.78,6.78,0,0,0,6.76-6.76V52.84A6.78,6.78,0,0,0,74.65,46.07Zm3.66,34.39a3.91,3.91,0,0,1-3.9,3.9H54a3.91,3.91,0,0,1-3.9-3.9V53a3.91,3.91,0,0,1,3.9-3.9h20.4a3.91,3.91,0,0,1,3.9,3.9Z"/><path class="cls-1" d="M73.39,55.21H55.25a1.5,1.5,0,0,0-1.49,1.49h0a1.5,1.5,0,0,0,1.49,1.49H73.39a1.5,1.5,0,0,0,1.49-1.49h0A1.5,1.5,0,0,0,73.39,55.21Z"/><path class="cls-1" d="M73.39,61.95H55.25a1.5,1.5,0,0,0-1.49,1.49h0a1.5,1.5,0,0,0,1.49,1.49H73.39a1.5,1.5,0,0,0,1.49-1.49h0A1.5,1.5,0,0,0,73.39,61.95Z"/><path class="cls-1" d="M73.39,68.68H55.25a1.5,1.5,0,0,0-1.49,1.49h0a1.5,1.5,0,0,0,1.49,1.49H73.39a1.5,1.5,0,0,0,1.49-1.49h0A1.5,1.5,0,0,0,73.39,68.68Z"/><rect class="cls-1" x="53.76" y="75.41" width="14.76" height="2.98" rx="1.25" ry="1.25"/><path class="cls-3" d="M153.48,84.77c0,.12.06.24.09.37h.17l0,0a41.25,41.25,0,0,0-67.47-23l-.09.05-.58.52A48.21,48.21,0,0,1,26.15,65.7c-.08.22-.18.43-.26.65v0a44.6,44.6,0,0,0-2.71,15.36c0-.44,0-.87,0-1.31h0v36.2a23.67,23.67,0,0,0,23.6,23.6h83.76a23.67,23.67,0,0,0,23.6-23.6V90.22A23.44,23.44,0,0,0,153.48,84.77Z"/><rect class="cls-1" x="97.77" y="86.13" width="42.71" height="6.33" rx="3.16" ry="3.16"/><rect class="cls-1" x="97.77" y="98.78" width="42.71" height="6.33" rx="3.16" ry="3.16"/><rect class="cls-1" x="97.77" y="111.44" width="42.71" height="6.33" rx="3.16" ry="3.16"/><rect class="cls-1" x="83.84" y="86.13" width="8.36" height="6.33" rx="1.4" ry="1.4"/><rect class="cls-1" x="83.84" y="98.78" width="8.36" height="6.33" rx="1.4" ry="1.4"/><rect class="cls-1" x="83.84" y="111.44" width="8.36" height="6.33" rx="1.4" ry="1.4"/></g></g></svg>